<svg xmlns="http://www.w3.org/2000/svg" width="19.76" height="19.76" viewBox="0 0 19.76 19.76">
  <path id="Icon_awesome-facebook-square" data-name="Icon awesome-facebook-square" d="M17.643,2.25H2.117A2.117,2.117,0,0,0,0,4.367V19.893A2.117,2.117,0,0,0,2.117,22.01H8.171V15.292H5.392V12.13H8.171V9.72c0-2.741,1.632-4.255,4.132-4.255a16.834,16.834,0,0,1,2.449.213V8.369H13.372a1.581,1.581,0,0,0-1.783,1.708V12.13h3.034l-.485,3.162H11.589V22.01h6.054a2.117,2.117,0,0,0,2.117-2.117V4.367A2.117,2.117,0,0,0,17.643,2.25Z" transform="translate(0 -2.25)" fill="#fff"/>
</svg>
