<svg xmlns="http://www.w3.org/2000/svg" width="19.765" height="19.76" viewBox="0 0 19.765 19.76">
  <path id="Icon_awesome-instagram" data-name="Icon awesome-instagram" d="M9.879,7.052a5.066,5.066,0,1,0,5.066,5.066A5.058,5.058,0,0,0,9.879,7.052Zm0,8.36a3.294,3.294,0,1,1,3.294-3.294A3.3,3.3,0,0,1,9.879,15.411Zm6.455-8.567a1.182,1.182,0,1,1-1.182-1.182A1.179,1.179,0,0,1,16.334,6.844Zm3.355,1.2a5.848,5.848,0,0,0-1.6-4.14,5.886,5.886,0,0,0-4.14-1.6c-1.631-.093-6.521-.093-8.153,0A5.878,5.878,0,0,0,1.66,3.9a5.867,5.867,0,0,0-1.6,4.14c-.093,1.631-.093,6.521,0,8.153a5.848,5.848,0,0,0,1.6,4.14,5.894,5.894,0,0,0,4.14,1.6c1.631.093,6.521.093,8.153,0a5.848,5.848,0,0,0,4.14-1.6,5.886,5.886,0,0,0,1.6-4.14c.093-1.631.093-6.517,0-8.148Zm-2.108,9.9A3.335,3.335,0,0,1,15.7,19.821c-1.3.516-4.387.4-5.825.4s-4.528.115-5.825-.4a3.335,3.335,0,0,1-1.878-1.878c-.516-1.3-.4-4.387-.4-5.825s-.115-4.528.4-5.825A3.335,3.335,0,0,1,4.055,4.415c1.3-.516,4.387-.4,5.825-.4s4.528-.115,5.825.4a3.335,3.335,0,0,1,1.878,1.878c.516,1.3.4,4.387.4,5.825S18.1,16.646,17.582,17.942Z" transform="translate(0.005 -2.238)" fill="#fff"/>
</svg>
