<?xml version="1.0" encoding="utf-8"?>
<!-- Generator: Adobe Illustrator 24.0.1, SVG Export Plug-In . SVG Version: 6.00 Build 0)  -->
<svg version="1.1" id="Capa_1" xmlns="http://www.w3.org/2000/svg" xmlns:xlink="http://www.w3.org/1999/xlink" x="0px" y="0px"
	 viewBox="0 0 122 26.5" style="enable-background:new 0 0 122 26.5;" xml:space="preserve">
<style type="text/css">
	.st0{fill:#FFFFFF;}
</style>
<g>
	<path class="st0" d="M1.7,6.4c1.1-2,2.7-3.6,4.6-4.7C8.3,0.6,10.5,0,13,0c3.1,0,5.7,0.8,7.9,2.4c2.2,1.6,3.6,3.8,4.4,6.6h-6.9
		c-0.5-1.1-1.3-1.9-2.2-2.5c-0.9-0.6-2-0.8-3.2-0.8c-1.9,0-3.5,0.7-4.7,2C7,9.1,6.4,10.9,6.4,13.2s0.6,4.1,1.8,5.4s2.8,2,4.7,2
		c1.2,0,2.3-0.3,3.2-0.9c1-0.6,1.7-1.4,2.2-2.5h6.9c-0.7,2.8-2.2,5-4.4,6.6s-4.8,2.4-7.9,2.4c-2.5,0-4.8-0.6-6.7-1.7S2.8,22,1.7,20
		C0.6,18,0,15.8,0,13.2S0.6,8.4,1.7,6.4z"/>
	<path class="st0" d="M33.1,25.2c-1.6-0.9-2.9-2.1-3.8-3.7c-0.9-1.6-1.4-3.5-1.4-5.6c0-2.1,0.5-4,1.4-5.6s2.2-2.8,3.8-3.7
		c1.6-0.9,3.4-1.3,5.5-1.3s3.8,0.4,5.5,1.3s2.9,2.1,3.8,3.7c0.9,1.6,1.4,3.5,1.4,5.6s-0.5,4-1.4,5.6c-1,1.6-2.2,2.9-3.9,3.7
		c-1.6,0.9-3.5,1.3-5.5,1.3C36.5,26.5,34.7,26.1,33.1,25.2z M41.6,19.7c0.8-0.9,1.3-2.1,1.3-3.8s-0.4-2.9-1.2-3.8
		c-0.8-0.9-1.8-1.3-3-1.3c-1.2,0-2.3,0.4-3.1,1.3s-1.2,2.1-1.2,3.8c0,1.6,0.4,2.9,1.2,3.8s1.8,1.3,3,1.3
		C39.8,21,40.8,20.6,41.6,19.7z"/>
	<path class="st0" d="M71,7.7c1.4,1.6,2.2,3.7,2.2,6.4v12h-6.3V15c0-1.4-0.4-2.4-1.1-3.2s-1.7-1.1-2.9-1.1s-2.2,0.4-2.9,1.1
		C59.4,12.6,59,13.6,59,15v11.2h-6.3V5.6H59v2.7c0.6-0.9,1.5-1.6,2.6-2.2s2.3-0.8,3.7-0.8C67.6,5.4,69.6,6.2,71,7.7z"/>
	<path class="st0" d="M77.5,10.3c0.8-1.6,1.9-2.8,3.3-3.7s2.9-1.3,4.6-1.3c1.4,0,2.7,0.3,3.8,0.9c1.1,0.6,1.9,1.4,2.5,2.3V5.6H98
		v20.6h-6.3v-2.9c-0.6,1-1.5,1.7-2.6,2.3s-2.4,0.9-3.8,0.9c-1.7,0-3.2-0.4-4.6-1.3c-1.4-0.9-2.5-2.1-3.3-3.7s-1.2-3.5-1.2-5.6
		S76.7,11.9,77.5,10.3z M90.4,12.2c-0.9-0.9-1.9-1.4-3.2-1.4s-2.3,0.4-3.2,1.4s-1.3,2.1-1.3,3.7c0,1.6,0.4,2.8,1.3,3.8
		S86,21,87.2,21s2.3-0.5,3.2-1.4c0.9-0.9,1.3-2.1,1.3-3.7C91.7,14.3,91.3,13.1,90.4,12.2z"/>
	<path class="st0" d="M121.9,17.4h-14.3c0.1,1.3,0.5,2.3,1.2,2.9c0.7,0.7,1.6,1,2.7,1c1.6,0,2.7-0.7,3.3-2h6.7
		c-0.3,1.4-1,2.6-1.9,3.6c-0.9,1.1-2,1.9-3.4,2.5c-1.3,0.6-2.9,0.9-4.5,0.9c-2,0-3.8-0.4-5.4-1.3c-1.6-0.9-2.8-2.1-3.7-3.7
		s-1.3-3.5-1.3-5.6s0.4-4,1.3-5.6c0.9-1.6,2.1-2.8,3.7-3.7s3.4-1.3,5.4-1.3c2,0,3.8,0.4,5.3,1.3c1.6,0.8,2.8,2,3.6,3.6
		c0.9,1.6,1.3,3.4,1.3,5.4C122,16.2,122,16.8,121.9,17.4z M115.6,13.9c0-1.1-0.4-1.9-1.1-2.6s-1.7-1-2.8-1c-1.1,0-1.9,0.3-2.7,0.9
		c-0.7,0.6-1.2,1.5-1.3,2.6H115.6z"/>
</g>
</svg>
