<svg xmlns="http://www.w3.org/2000/svg" width="24.33" height="19.76" viewBox="0 0 24.33 19.76">
  <path id="Icon_awesome-twitter" data-name="Icon awesome-twitter" d="M21.829,8.305c.015.216.015.432.015.648A14.09,14.09,0,0,1,7.657,23.141,14.091,14.091,0,0,1,0,20.9a10.315,10.315,0,0,0,1.2.062,9.986,9.986,0,0,0,6.19-2.13,5,5,0,0,1-4.662-3.458,6.288,6.288,0,0,0,.942.077,5.274,5.274,0,0,0,1.312-.17,4.987,4.987,0,0,1-4-4.894v-.062a5.022,5.022,0,0,0,2.254.633A4.994,4.994,0,0,1,1.7,4.292,14.173,14.173,0,0,0,11.98,9.509a5.629,5.629,0,0,1-.124-1.142,4.991,4.991,0,0,1,8.63-3.412,9.817,9.817,0,0,0,3.165-1.2A4.973,4.973,0,0,1,21.458,6.5a10,10,0,0,0,2.871-.772,10.719,10.719,0,0,1-2.5,2.578Z" transform="translate(0 -3.381)" fill="#fff"/>
</svg>
